Coordinates
version=1
nRows=26
nColumns=24
inDegrees=yes

Units are S.I. units (second, meters, Newtons, ...)
Angles are in degrees.

endheader
time	pelvis_tilt	pelvis_list	pelvis_rotation	pelvis_tx	pelvis_ty	pelvis_tz	hip_flexion_r	hip_adduction_r	hip_rotation_r	knee_angle_r	ankle_angle_r	subtalar_angle_r	mtp_angle_r	hip_flexion_l	hip_adduction_l	hip_rotation_l	knee_angle_l	ankle_angle_l	subtalar_angle_l	mtp_angle_l	lumbar_extension	lumbar_bending	lumbar_rotation
      3.92500000	     -4.11991032	      2.40077704	      6.49922030	     -0.28106664	     -0.03511141	     -0.15539796	     35.66247808	     -1.74740630	     -0.64331089	    -19.35434779	      2.22927355	     12.13679771	     15.31505097	    -11.26103980	      5.85933288	     -7.68583086	    -23.26201505	     13.21187773	     20.86338374	     -8.14932949	      2.61335168	     -4.98538837	    -13.92584036
      3.93000000	     -4.27959882	      2.21648662	      6.46413175	     -0.27337649	     -0.03568377	     -0.15474081	     35.65536283	     -1.39067480	     -0.49046235	    -19.91707555	      1.58513020	     11.62603815	     15.14458650	    -11.02684281	      5.37199855	     -8.20505880	    -24.26935577	     12.27930045	     21.37015092	     -7.26313199	      2.94037695	     -4.80206128	    -13.81492448
      3.93500000	     -4.31668160	      1.92524642	      6.42894675	     -0.26558240	     -0.03591412	     -0.15424233	     35.45096782	     -0.94619031	     -0.44222896	    -20.30291403	      0.59335882	     11.04965371	     15.48121527	    -11.00502799	      4.80250645	     -8.51127480	    -24.81831408	     10.04910747	     21.28575137	     -2.20166522	      3.16032866	     -4.45865870	    -13.70979797
      3.94000000	     -4.43848352	      1.64042412	      6.38925357	     -0.25790080	     -0.03621603	     -0.15355604	     35.39955910	     -0.48157784	     -0.35303499	    -20.80692434	     -0.30201133	     10.47357663	     15.12670724	    -10.73623646	      4.18527661	     -8.96293496	    -25.72695304	      8.23812697	     21.50099950	      1.08250932	      3.44221646	     -4.15759981	    -13.54261306
      3.94500000	     -4.59054614	      1.31510884	      6.33175477	     -0.25021687	     -0.03646908	     -0.15281283	     35.38481567	      0.04197123	     -0.21065402	    -21.27781688	     -1.32568624	      9.81035078	     14.85999559	    -10.36438444	      3.50301405	     -9.45530158	    -26.71387039	      6.27025737	     21.70934647	      4.48351553	      3.75969858	     -3.81671264	    -13.33388429
      3.95000000	     -4.82963441	      1.01277079	      6.27727072	     -0.24269543	     -0.03681773	     -0.15196346	     35.52233860	      0.56266263	      0.04042653	    -21.84345942	     -2.33140999	      9.07591235	     14.36542545	     -9.73693852	      2.80596479	    -10.01773597	    -28.09490936	      4.74883313	     22.12300180	      5.65025737	      4.13008244	     -3.53354344	    -13.15412652
      3.95500000	     -4.88432099	      0.60703480	      6.20110028	     -0.23495137	     -0.03680283	     -0.15128951	     35.40588197	      1.18973858	      0.22629874	    -22.35861855	     -3.20051639	      8.59117303	     13.68629372	     -9.42213667	      2.02622396	    -10.43447953	    -28.92214486	      1.85621056	     21.84279690	     11.05340597	      4.35120338	     -3.07521614	    -12.91487432
      3.96000000	     -5.06126938	      0.24600972	      6.03363875	     -0.22726611	     -0.03700237	     -0.15036569	     35.46928614	      1.86403362	      0.67707748	    -22.94343606	     -4.08801085	      7.91028218	     13.05979303	     -8.84132538	      1.26124592	    -11.01657160	    -30.15450968	     -0.49102277	     21.84724901	     13.68796793	      4.69007460	     -2.69271398	    -12.54367178
      3.96500000	     -5.22482178	     -0.14241659	      6.07860623	     -0.21975990	     -0.03709140	     -0.14970394	     35.50638857	      2.42879111	      0.88650378	    -23.54527312	     -4.82649394	      7.31847153	     12.40981047	     -8.15394532	      0.45068683	    -11.25764583	    -31.45319989	     -3.15356611	     21.53697244	     16.77657163	      4.97066138	     -2.31044783	    -12.45833316
      3.97000000	     -5.41854592	     -0.54505368	      5.97617428	     -0.21212635	     -0.03732289	     -0.14886452	     35.58540984	      3.11026880	      1.29221087	    -24.16406936	     -5.47721503	      6.70952949	     11.89651186	     -7.40163079	     -0.38378073	    -11.67937251	    -32.87416632	     -5.71184997	     21.28292492	     18.73943684	      5.31760034	     -1.89755631	    -12.16710484
      3.97500000	     -5.61025073	     -0.94012620	      5.94675831	     -0.20463817	     -0.03754181	     -0.14810919	     35.65419791	      3.74527274	      1.64622701	    -24.77473947	     -6.04401745	      6.04132471	     11.44791291	     -6.55899721	     -1.19723070	    -11.89833650	    -34.38205136	     -8.38917478	     20.73558577	     20.24195798	      5.62761670	     -1.50636349	    -11.97448097
      3.98000000	     -5.74105822	     -1.32858636	      5.91794066	     -0.19720456	     -0.03772017	     -0.14739928	     35.63971225	      4.37305434	      1.97020385	    -25.35839850	     -6.46997299	      5.39805759	     11.12839266	     -5.73160473	     -1.98630533	    -12.03002083	    -35.91997798	    -11.17998518	     19.92473250	     21.28066989	      5.86111051	     -1.11353348	    -11.78030595
      3.98500000	     -5.82127033	     -1.70870984	      5.89282568	     -0.18991379	     -0.03789895	     -0.14669133	     35.56280091	      4.99319955	      2.28216950	    -25.91961079	     -6.78017537	      4.77233876	     10.93854466	     -4.87596538	     -2.75957997	    -12.11196777	    -37.57836347	    -13.87133691	     18.91461343	     21.29272204	      6.00613377	     -0.73245644	    -11.62866855
      3.99000000	     -5.86521722	     -2.13253631	      5.84430393	     -0.18258539	     -0.03805164	     -0.14601676	     35.41439615	      5.65578763	      2.48772944	    -26.41781724	     -6.97530714	      4.18006834	     10.81370933	     -4.02831734	     -3.55264864	    -12.13773699	    -39.24456201	    -16.55608482	     17.68348129	     20.81449210	      6.13035577	     -0.28375892	    -11.38889990
      3.99500000	     -5.93286837	     -2.56488448	      5.75753353	     -0.17533633	     -0.03829002	     -0.14524297	     35.27891360	      6.35337395	      2.71716404	    -26.88123615	     -7.10114232	      3.54761461	     10.76564573	     -3.10196550	     -4.34983366	    -12.18932307	    -40.95772961	    -19.19591309	     16.22558978	     20.04440189	      6.26684974	      0.16033885	    -11.14075244
      4.00000000	     -6.11335072	     -2.98188566	      5.60127964	     -0.16818373	     -0.03871673	     -0.14438616	     35.26537255	      7.05340553	      2.96678119	    -27.30601687	     -7.24612626	      2.89738521	     11.14908485	     -1.98418229	     -5.10529827	    -12.27631894	    -42.82848023	    -21.44254197	     14.63636271	     17.94086932	      6.51545559	      0.58176290	    -10.80653599
      4.00500000	     -6.13241547	     -3.43726031	      5.46178967	     -0.16112065	     -0.03894314	     -0.14359287	     35.02610440	      7.78781574	      3.14743343	    -27.64181080	     -7.27189765	      2.28622887	     11.43851601	     -0.99356612	     -5.89132749	    -12.30506699	    -44.73689696	    -23.40254615	     12.87801061	     15.00663020	      6.57307676	      1.06316452	    -10.50574742
      4.01000000	     -6.17718996	     -3.89888456	      5.28361190	     -0.15413864	     -0.03920185	     -0.14274690	     34.79606205	      8.54224922	      3.31977289	    -27.94062430	     -7.21778342	      1.71201761	     11.69122974	      0.06440034	     -6.66938993	    -12.34286792	    -46.68206312	    -25.07074311	     10.99108778	     11.63392657	      6.64631613	      1.55063072	    -10.15886085
      4.01500000	     -6.19479544	     -4.36980815	      5.08159078	     -0.14724856	     -0.03941527	     -0.14187527	     34.50516141	      9.31844957	      3.49992120	    -28.18057092	     -7.12148988	      1.14118175	     11.90546678	      1.13005788	     -7.44721403	    -12.38087422	    -48.65996376	    -26.34329198	      9.02831919	      7.75664875	      6.68005416	      2.05105744	     -9.78730038
      4.02000000	     -6.21704939	     -4.83230212	      4.84438736	     -0.14043789	     -0.03960744	     -0.14096041	     34.19054298	     10.10329335	      3.70299413	    -28.37359552	     -6.97870510	      0.58262289	     12.05078702	      2.22343503	     -8.20230492	    -12.43123601	    -50.64600746	    -27.19861123	      7.03260353	      3.54160937	      6.70421906	      2.54174195	     -9.38856612
      4.02500000	     -6.23508132	     -5.29132235	      4.59005559	     -0.13369380	     -0.03973113	     -0.14003779	     33.83847135	     10.88460079	      3.88602384	    -28.51147196	     -6.81109341	      0.04290755	     12.11465297	      3.33635605	     -8.94133614	    -12.47594276	    -52.62595931	    -27.61187870	      5.08513368	     -0.95837194	      6.71693137	      3.02908938	     -8.97843321
      4.03000000	     -6.25642417	     -5.72983107	      4.31868533	     -0.12704776	     -0.03978418	     -0.13912302	     33.46027402	     11.64464482	      4.08492204	    -28.60518763	     -6.61861635	     -0.44746810	     12.10592495	      4.47227526	     -9.63665624	    -12.50847830	    -54.57507493	    -27.60270814	      3.19806278	     -5.52901615	      6.71865471	      3.49790926	     -8.54726218
      4.03500000	     -6.28432484	     -6.13864682	      4.03264616	     -0.12049982	     -0.03976081	     -0.13822425	     33.05957082	     12.37109527	      4.29846706	    -28.65731803	     -6.39745255	     -0.88446010	     12.04488836	      5.62760784	    -10.27088929	    -12.51964028	    -56.46963515	    -27.18419211	      1.41223650	    -10.00887876	      6.70832965	      3.93483211	     -8.10984504
      4.04000000	     -6.31499918	     -6.50604959	      3.74089579	     -0.11403460	     -0.03963454	     -0.13736424	     32.62940832	     13.04457174	      4.52314768	    -28.66730536	     -6.14682739	     -1.25892982	     11.95919434	      6.78929465	    -10.82730503	    -12.50501140	    -58.27475056	    -26.42827172	     -0.24322753	    -14.18821535	      6.69056201	      4.33127621	     -7.67153097
      4.04500000	     -6.33167199	     -6.84518086	      3.47032910	     -0.10769967	     -0.03937110	     -0.13660399	     32.16066086	     13.65487845	      4.72291680	    -28.63700383	     -5.89254785	     -1.50965915	     11.88068640	      7.96072539	    -11.30930937	    -12.42028437	    -59.99587062	    -25.38741576	     -1.72064983	    -18.01105342	      6.64091159	      4.71122625	     -7.21895847
      4.05000000	     -6.37118502	     -7.12594689	      3.18196739	     -0.10137077	     -0.03904572	     -0.13583069	     31.67701352	     14.20737473	      4.95930539	    -28.56687632	     -5.58602055	     -1.75640976	     11.80940119	      9.13064203	    -11.70295493	    -12.34254343	    -61.58081499	    -24.15158919	     -3.04468395	    -21.07765512	      6.61837353	      5.01947419	     -6.78537574
